<mxfile host="app.diagrams.net" modified="2023-06-30T19:53:43.924Z" agent="Mozilla/5.0 (Windows NT 10.0; Win64; x64) AppleWebKit/537.36 (KHTML, like Gecko) Chrome/114.0.0.0 Safari/537.36" etag="8qVl7cpWFAWCyF3TvENK" version="21.3.2" type="device">
  <diagram name="PÃ¡gina-1" id="ddm3OCbYZNYBD3e1C8C_">
    <mxGraphModel dx="2074" dy="1134" grid="1" gridSize="10" guides="1" tooltips="1" connect="1" arrows="1" fold="1" page="1" pageScale="1" pageWidth="827" pageHeight="1169" math="0" shadow="0">
      <root>
        <mxCell id="0" />
        <mxCell id="1" parent="0" />
        <mxCell id="MuW73i9ce7-EAqg0fNtr-8" value="" style="edgeStyle=orthogonalEdgeStyle;rounded=0;orthogonalLoop=1;jettySize=auto;html=1;" edge="1" parent="1" source="MuW73i9ce7-EAqg0fNtr-1" target="MuW73i9ce7-EAqg0fNtr-2">
          <mxGeometry relative="1" as="geometry" />
        </mxCell>
        <mxCell id="MuW73i9ce7-EAqg0fNtr-1" value="El comprador recibe un pedido" style="whiteSpace=wrap;html=1;aspect=fixed;" vertex="1" parent="1">
          <mxGeometry x="170" y="110" width="80" height="80" as="geometry" />
        </mxCell>
        <mxCell id="MuW73i9ce7-EAqg0fNtr-9" value="" style="edgeStyle=orthogonalEdgeStyle;rounded=0;orthogonalLoop=1;jettySize=auto;html=1;" edge="1" parent="1" source="MuW73i9ce7-EAqg0fNtr-2" target="MuW73i9ce7-EAqg0fNtr-3">
          <mxGeometry relative="1" as="geometry" />
        </mxCell>
        <mxCell id="MuW73i9ce7-EAqg0fNtr-2" value="Se ingresa dentro de la BD" style="whiteSpace=wrap;html=1;aspect=fixed;" vertex="1" parent="1">
          <mxGeometry x="310" y="110" width="80" height="80" as="geometry" />
        </mxCell>
        <mxCell id="MuW73i9ce7-EAqg0fNtr-10" value="" style="edgeStyle=orthogonalEdgeStyle;rounded=0;orthogonalLoop=1;jettySize=auto;html=1;" edge="1" parent="1" source="MuW73i9ce7-EAqg0fNtr-3" target="MuW73i9ce7-EAqg0fNtr-4">
          <mxGeometry relative="1" as="geometry" />
        </mxCell>
        <mxCell id="MuW73i9ce7-EAqg0fNtr-3" value="Se modifica la BD" style="whiteSpace=wrap;html=1;aspect=fixed;" vertex="1" parent="1">
          <mxGeometry x="454" y="110" width="80" height="80" as="geometry" />
        </mxCell>
        <mxCell id="MuW73i9ce7-EAqg0fNtr-11" style="edgeStyle=orthogonalEdgeStyle;rounded=0;orthogonalLoop=1;jettySize=auto;html=1;entryX=1;entryY=0.5;entryDx=0;entryDy=0;" edge="1" parent="1" source="MuW73i9ce7-EAqg0fNtr-4" target="MuW73i9ce7-EAqg0fNtr-5">
          <mxGeometry relative="1" as="geometry" />
        </mxCell>
        <mxCell id="MuW73i9ce7-EAqg0fNtr-4" value="Se crea un documento con los cambios y la fecha" style="whiteSpace=wrap;html=1;aspect=fixed;" vertex="1" parent="1">
          <mxGeometry x="600" y="110" width="80" height="80" as="geometry" />
        </mxCell>
        <mxCell id="MuW73i9ce7-EAqg0fNtr-12" value="" style="edgeStyle=orthogonalEdgeStyle;rounded=0;orthogonalLoop=1;jettySize=auto;html=1;" edge="1" parent="1" source="MuW73i9ce7-EAqg0fNtr-5" target="MuW73i9ce7-EAqg0fNtr-6">
          <mxGeometry relative="1" as="geometry" />
        </mxCell>
        <mxCell id="MuW73i9ce7-EAqg0fNtr-5" value="Se envia el pedido" style="whiteSpace=wrap;html=1;aspect=fixed;" vertex="1" parent="1">
          <mxGeometry x="520" y="260" width="80" height="80" as="geometry" />
        </mxCell>
        <mxCell id="MuW73i9ce7-EAqg0fNtr-13" value="" style="edgeStyle=orthogonalEdgeStyle;rounded=0;orthogonalLoop=1;jettySize=auto;html=1;" edge="1" parent="1" source="MuW73i9ce7-EAqg0fNtr-6" target="MuW73i9ce7-EAqg0fNtr-7">
          <mxGeometry relative="1" as="geometry" />
        </mxCell>
        <mxCell id="MuW73i9ce7-EAqg0fNtr-6" value="Se lleva registro del pedido" style="whiteSpace=wrap;html=1;aspect=fixed;" vertex="1" parent="1">
          <mxGeometry x="380" y="260" width="80" height="80" as="geometry" />
        </mxCell>
        <mxCell id="MuW73i9ce7-EAqg0fNtr-14" style="edgeStyle=orthogonalEdgeStyle;rounded=0;orthogonalLoop=1;jettySize=auto;html=1;entryX=0.5;entryY=1;entryDx=0;entryDy=0;" edge="1" parent="1" source="MuW73i9ce7-EAqg0fNtr-7" target="MuW73i9ce7-EAqg0fNtr-1">
          <mxGeometry relative="1" as="geometry">
            <Array as="points">
              <mxPoint x="210" y="300" />
            </Array>
          </mxGeometry>
        </mxCell>
        <mxCell id="MuW73i9ce7-EAqg0fNtr-7" value="El pedido llega al comprador" style="whiteSpace=wrap;html=1;aspect=fixed;" vertex="1" parent="1">
          <mxGeometry x="240" y="260" width="80" height="80" as="geometry" />
        </mxCell>
      </root>
    </mxGraphModel>
  </diagram>
</mxfile>
